<?xml version="1.0" encoding="UTF-8" standalone="no"?>
<!DOCTYPE svg PUBLIC "-//W3C//DTD SVG 1.1//EN"
 "http://www.w3.org/Graphics/SVG/1.1/DTD/svg11.dtd">
<!-- Generated by graphviz version 2.50.0 (20211204.2007)
 -->
<!-- Title: dag Pages: 1 -->
<svg width="1555pt" height="264pt"
 viewBox="0.00 0.00 1555.00 264.00" xmlns="http://www.w3.org/2000/svg" xmlns:xlink="http://www.w3.org/1999/xlink">
<g id="graph0" class="graph" transform="scale(1 1) rotate(0) translate(4 260)">
<title>dag</title>
<polygon fill="white" stroke="transparent" points="-4,4 -4,-260 1551,-260 1551,4 -4,4"/>
<!-- Top -->
<g id="node1" class="node">
<title>Top</title>
<polygon fill="none" stroke="black" points="543,-219.5 543,-255.5 597,-255.5 597,-219.5 543,-219.5"/>
<text text-anchor="middle" x="570" y="-233.8" font-family="Times,serif" font-size="14.00">Top</text>
</g>
<!-- /drv0 -->
<g id="node2" class="node">
<title>/drv0</title>
<polygon fill="none" stroke="black" points="0,-146.5 0,-182.5 54,-182.5 54,-146.5 0,-146.5"/>
<text text-anchor="middle" x="27" y="-160.8" font-family="Times,serif" font-size="14.00">/drv0</text>
</g>
<!-- Top&#45;&#45;/drv0 -->
<g id="edge1" class="edge">
<title>Top&#45;&#45;/drv0</title>
<path fill="none" stroke="black" d="M542.99,-236.9C466.23,-237.35 240.84,-233.91 63,-183 60.06,-182.16 57.07,-181.09 54.13,-179.9"/>
</g>
<!-- /drv1 -->
<g id="node3" class="node">
<title>/drv1</title>
<polygon fill="none" stroke="black" points="72,-146.5 72,-182.5 126,-182.5 126,-146.5 72,-146.5"/>
<text text-anchor="middle" x="99" y="-160.8" font-family="Times,serif" font-size="14.00">/drv1</text>
</g>
<!-- Top&#45;&#45;/drv1 -->
<g id="edge2" class="edge">
<title>Top&#45;&#45;/drv1</title>
<path fill="none" stroke="black" d="M542.9,-236.24C473.54,-234.93 284.59,-227.22 135,-183 132.07,-182.13 129.08,-181.05 126.14,-179.84"/>
</g>
<!-- /ccat0 -->
<g id="node4" class="node">
<title>/ccat0</title>
<polygon fill="none" stroke="black" points="144,-146.5 144,-182.5 198,-182.5 198,-146.5 144,-146.5"/>
<text text-anchor="middle" x="171" y="-160.8" font-family="Times,serif" font-size="14.00">/ccat0</text>
</g>
<!-- Top&#45;&#45;/ccat0 -->
<g id="edge3" class="edge">
<title>Top&#45;&#45;/ccat0</title>
<path fill="none" stroke="black" d="M542.96,-235.33C481.82,-232.09 328.74,-220.58 207,-183 204.08,-182.1 201.1,-180.99 198.16,-179.77"/>
</g>
<!-- /sub -->
<g id="node5" class="node">
<title>/sub</title>
<polygon fill="none" stroke="black" points="216,-146.5 216,-182.5 270,-182.5 270,-146.5 216,-146.5"/>
<text text-anchor="middle" x="243" y="-160.8" font-family="Times,serif" font-size="14.00">/sub</text>
</g>
<!-- Top&#45;&#45;/sub -->
<g id="edge4" class="edge">
<title>Top&#45;&#45;/sub</title>
<path fill="none" stroke="black" d="M542.92,-233.99C490.76,-228.63 373.2,-213.92 279,-183 276.09,-182.05 273.12,-180.9 270.2,-179.66"/>
</g>
<!-- /ccat1 -->
<g id="node6" class="node">
<title>/ccat1</title>
<polygon fill="none" stroke="black" points="288,-146.5 288,-182.5 342,-182.5 342,-146.5 288,-146.5"/>
<text text-anchor="middle" x="315" y="-160.8" font-family="Times,serif" font-size="14.00">/ccat1</text>
</g>
<!-- Top&#45;&#45;/ccat1 -->
<g id="edge5" class="edge">
<title>Top&#45;&#45;/ccat1</title>
<path fill="none" stroke="black" d="M542.83,-231.79C500.88,-224.1 418.19,-207.23 351,-183 348.12,-181.96 345.17,-180.77 342.26,-179.49"/>
</g>
<!-- /const0 -->
<g id="node7" class="node">
<title>/const0</title>
<polygon fill="none" stroke="black" points="360,-146.5 360,-182.5 416,-182.5 416,-146.5 360,-146.5"/>
<text text-anchor="middle" x="388" y="-160.8" font-family="Times,serif" font-size="14.00">/const0</text>
</g>
<!-- Top&#45;&#45;/const0 -->
<g id="edge6" class="edge">
<title>Top&#45;&#45;/const0</title>
<path fill="none" stroke="black" d="M543,-227.34C513.67,-217.2 465.57,-200.04 425,-183 422.12,-181.79 419.13,-180.48 416.17,-179.14"/>
</g>
<!-- /gt -->
<g id="node8" class="node">
<title>/gt</title>
<polygon fill="none" stroke="black" points="434,-146.5 434,-182.5 488,-182.5 488,-146.5 434,-146.5"/>
<text text-anchor="middle" x="461" y="-160.8" font-family="Times,serif" font-size="14.00">/gt</text>
</g>
<!-- Top&#45;&#45;/gt -->
<g id="edge7" class="edge">
<title>Top&#45;&#45;/gt</title>
<path fill="none" stroke="black" d="M543.89,-219.49C526.76,-208.33 504.44,-193.79 487.27,-182.61"/>
</g>
<!-- /when0 -->
<g id="node9" class="node">
<title>/when0</title>
<polygon fill="none" stroke="black" points="506,-146.5 506,-182.5 562,-182.5 562,-146.5 506,-146.5"/>
<text text-anchor="middle" x="534" y="-160.8" font-family="Times,serif" font-size="14.00">/when0</text>
</g>
<!-- Top&#45;&#45;/when0 -->
<g id="edge8" class="edge">
<title>Top&#45;&#45;/when0</title>
<path fill="none" stroke="black" d="M561.29,-219.31C555.63,-208.15 548.28,-193.66 542.63,-182.53"/>
</g>
<!-- /ccat2 -->
<g id="node18" class="node">
<title>/ccat2</title>
<polygon fill="none" stroke="black" points="580,-146.5 580,-182.5 634,-182.5 634,-146.5 580,-146.5"/>
<text text-anchor="middle" x="607" y="-160.8" font-family="Times,serif" font-size="14.00">/ccat2</text>
</g>
<!-- Top&#45;&#45;/ccat2 -->
<g id="edge17" class="edge">
<title>Top&#45;&#45;/ccat2</title>
<path fill="none" stroke="black" d="M578.96,-219.31C584.77,-208.15 592.32,-193.66 598.13,-182.53"/>
</g>
<!-- /mul -->
<g id="node19" class="node">
<title>/mul</title>
<polygon fill="none" stroke="black" points="652,-146.5 652,-182.5 706,-182.5 706,-146.5 652,-146.5"/>
<text text-anchor="middle" x="679" y="-160.8" font-family="Times,serif" font-size="14.00">/mul</text>
</g>
<!-- Top&#45;&#45;/mul -->
<g id="edge18" class="edge">
<title>Top&#45;&#45;/mul</title>
<path fill="none" stroke="black" d="M596.11,-219.49C613.24,-208.33 635.56,-193.79 652.73,-182.61"/>
</g>
<!-- /ccat3 -->
<g id="node20" class="node">
<title>/ccat3</title>
<polygon fill="none" stroke="black" points="724,-146.5 724,-182.5 778,-182.5 778,-146.5 724,-146.5"/>
<text text-anchor="middle" x="751" y="-160.8" font-family="Times,serif" font-size="14.00">/ccat3</text>
</g>
<!-- Top&#45;&#45;/ccat3 -->
<g id="edge19" class="edge">
<title>Top&#45;&#45;/ccat3</title>
<path fill="none" stroke="black" d="M597.04,-227.42C626.4,-217.36 674.52,-200.26 715,-183 717.81,-181.8 720.72,-180.5 723.61,-179.16"/>
</g>
<!-- /const1 -->
<g id="node21" class="node">
<title>/const1</title>
<polygon fill="none" stroke="black" points="796,-146.5 796,-182.5 852,-182.5 852,-146.5 796,-146.5"/>
<text text-anchor="middle" x="824" y="-160.8" font-family="Times,serif" font-size="14.00">/const1</text>
</g>
<!-- Top&#45;&#45;/const1 -->
<g id="edge20" class="edge">
<title>Top&#45;&#45;/const1</title>
<path fill="none" stroke="black" d="M597.23,-231.61C638.86,-223.72 720.47,-206.67 787,-183 789.95,-181.95 792.97,-180.75 795.96,-179.47"/>
</g>
<!-- /lt -->
<g id="node22" class="node">
<title>/lt</title>
<polygon fill="none" stroke="black" points="870,-146.5 870,-182.5 924,-182.5 924,-146.5 870,-146.5"/>
<text text-anchor="middle" x="897" y="-160.8" font-family="Times,serif" font-size="14.00">/lt</text>
</g>
<!-- Top&#45;&#45;/lt -->
<g id="edge21" class="edge">
<title>Top&#45;&#45;/lt</title>
<path fill="none" stroke="black" d="M597.08,-233.99C649.24,-228.63 766.8,-213.92 861,-183 863.91,-182.05 866.88,-180.9 869.8,-179.66"/>
</g>
<!-- /when1 -->
<g id="node23" class="node">
<title>/when1</title>
<polygon fill="none" stroke="black" points="942,-146.5 942,-182.5 998,-182.5 998,-146.5 942,-146.5"/>
<text text-anchor="middle" x="970" y="-160.8" font-family="Times,serif" font-size="14.00">/when1</text>
</g>
<!-- Top&#45;&#45;/when1 -->
<g id="edge22" class="edge">
<title>Top&#45;&#45;/when1</title>
<path fill="none" stroke="black" d="M597.01,-235.24C658.1,-231.81 811.07,-219.93 933,-183 935.86,-182.13 938.77,-181.08 941.65,-179.93"/>
</g>
<!-- /priority_mux -->
<g id="node32" class="node">
<title>/priority_mux</title>
<polygon fill="none" stroke="black" points="1016,-146.5 1016,-182.5 1108,-182.5 1108,-146.5 1016,-146.5"/>
<text text-anchor="middle" x="1062" y="-160.8" font-family="Times,serif" font-size="14.00">/priority_mux</text>
</g>
<!-- Top&#45;&#45;/priority_mux -->
<g id="edge31" class="edge">
<title>Top&#45;&#45;/priority_mux</title>
<path fill="none" stroke="black" d="M597.15,-234.94C666.24,-230.59 854.1,-216.38 1007,-183 1009.94,-182.36 1012.94,-181.63 1015.96,-180.84"/>
</g>
<!-- /shred -->
<g id="node33" class="node">
<title>/shred</title>
<polygon fill="none" stroke="black" points="1126,-146.5 1126,-182.5 1180,-182.5 1180,-146.5 1126,-146.5"/>
<text text-anchor="middle" x="1153" y="-160.8" font-family="Times,serif" font-size="14.00">/shred</text>
</g>
<!-- Top&#45;&#45;/shred -->
<g id="edge32" class="edge">
<title>Top&#45;&#45;/shred</title>
<path fill="none" stroke="black" d="M597.09,-237.19C677.86,-238.56 923.46,-237.6 1117,-183 1119.94,-182.17 1122.94,-181.11 1125.88,-179.92"/>
</g>
<!-- /when0/ccat -->
<g id="node10" class="node">
<title>/when0/ccat</title>
<polygon fill="none" stroke="black" points="363,-73.5 363,-109.5 445,-109.5 445,-73.5 363,-73.5"/>
<text text-anchor="middle" x="404" y="-87.8" font-family="Times,serif" font-size="14.00">/when0/ccat</text>
</g>
<!-- /when0&#45;&#45;/when0/ccat -->
<g id="edge9" class="edge">
<title>/when0&#45;&#45;/when0/ccat</title>
<path fill="none" stroke="black" d="M505.79,-148.09C485.03,-136.76 456.81,-121.34 435.34,-109.62"/>
</g>
<!-- /when0/cast_dout -->
<g id="node11" class="node">
<title>/when0/cast_dout</title>
<polygon fill="none" stroke="black" points="463,-73.5 463,-109.5 575,-109.5 575,-73.5 463,-73.5"/>
<text text-anchor="middle" x="519" y="-87.8" font-family="Times,serif" font-size="14.00">/when0/cast_dout</text>
</g>
<!-- /when0&#45;&#45;/when0/cast_dout -->
<g id="edge10" class="edge">
<title>/when0&#45;&#45;/when0/cast_dout</title>
<path fill="none" stroke="black" d="M530.37,-146.31C528.01,-135.15 524.95,-120.66 522.6,-109.53"/>
</g>
<!-- /when0/filt -->
<g id="node12" class="node">
<title>/when0/filt</title>
<polygon fill="none" stroke="black" points="593.5,-73.5 593.5,-109.5 668.5,-109.5 668.5,-73.5 593.5,-73.5"/>
<text text-anchor="middle" x="631" y="-87.8" font-family="Times,serif" font-size="14.00">/when0/filt</text>
</g>
<!-- /when0&#45;&#45;/when0/filt -->
<g id="edge11" class="edge">
<title>/when0&#45;&#45;/when0/filt</title>
<path fill="none" stroke="black" d="M557.48,-146.31C572.73,-135.15 592.53,-120.66 607.74,-109.53"/>
</g>
<!-- /when0/filt/ccat -->
<g id="node13" class="node">
<title>/when0/filt/ccat</title>
<polygon fill="none" stroke="black" points="331.5,-0.5 331.5,-36.5 432.5,-36.5 432.5,-0.5 331.5,-0.5"/>
<text text-anchor="middle" x="382" y="-14.8" font-family="Times,serif" font-size="14.00">/when0/filt/ccat</text>
</g>
<!-- /when0/filt&#45;&#45;/when0/filt/ccat -->
<g id="edge12" class="edge">
<title>/when0/filt&#45;&#45;/when0/filt/ccat</title>
<path fill="none" stroke="black" d="M593.42,-76.09C590.25,-75 587.08,-73.96 584,-73 521.42,-53.54 504.21,-54.32 441,-37 438.32,-36.27 435.58,-35.5 432.81,-34.72"/>
</g>
<!-- /when0/filt/const -->
<g id="node14" class="node">
<title>/when0/filt/const</title>
<polygon fill="none" stroke="black" points="450.5,-0.5 450.5,-36.5 557.5,-36.5 557.5,-0.5 450.5,-0.5"/>
<text text-anchor="middle" x="504" y="-14.8" font-family="Times,serif" font-size="14.00">/when0/filt/const</text>
</g>
<!-- /when0/filt&#45;&#45;/when0/filt/const -->
<g id="edge13" class="edge">
<title>/when0/filt&#45;&#45;/when0/filt/const</title>
<path fill="none" stroke="black" d="M600.58,-73.49C580.62,-62.33 554.61,-47.79 534.61,-36.61"/>
</g>
<!-- /when0/filt/filt -->
<g id="node15" class="node">
<title>/when0/filt/filt</title>
<polygon fill="none" stroke="black" points="576,-0.5 576,-36.5 670,-36.5 670,-0.5 576,-0.5"/>
<text text-anchor="middle" x="623" y="-14.8" font-family="Times,serif" font-size="14.00">/when0/filt/filt</text>
</g>
<!-- /when0/filt&#45;&#45;/when0/filt/filt -->
<g id="edge14" class="edge">
<title>/when0/filt&#45;&#45;/when0/filt/filt</title>
<path fill="none" stroke="black" d="M629.06,-73.31C627.81,-62.15 626.17,-47.66 624.92,-36.53"/>
</g>
<!-- /when0/filt/sieve_0 -->
<g id="node16" class="node">
<title>/when0/filt/sieve_0</title>
<polygon fill="none" stroke="black" points="688,-0.5 688,-36.5 808,-36.5 808,-0.5 688,-0.5"/>
<text text-anchor="middle" x="748" y="-14.8" font-family="Times,serif" font-size="14.00">/when0/filt/sieve_0</text>
</g>
<!-- /when0/filt&#45;&#45;/when0/filt/sieve_0 -->
<g id="edge15" class="edge">
<title>/when0/filt&#45;&#45;/when0/filt/sieve_0</title>
<path fill="none" stroke="black" d="M659.02,-73.49C677.41,-62.33 701.37,-47.79 719.8,-36.61"/>
</g>
<!-- /when0/filt/code -->
<g id="node17" class="node">
<title>/when0/filt/code</title>
<polygon fill="none" stroke="black" points="826,-0.5 826,-36.5 930,-36.5 930,-0.5 826,-0.5"/>
<text text-anchor="middle" x="878" y="-14.8" font-family="Times,serif" font-size="14.00">/when0/filt/code</text>
</g>
<!-- /when0/filt&#45;&#45;/when0/filt/code -->
<g id="edge16" class="edge">
<title>/when0/filt&#45;&#45;/when0/filt/code</title>
<path fill="none" stroke="black" d="M668.51,-79.72C710.49,-67.65 778.76,-48.03 825.9,-34.48"/>
</g>
<!-- /when1/ccat -->
<g id="node24" class="node">
<title>/when1/ccat</title>
<polygon fill="none" stroke="black" points="845,-73.5 845,-109.5 927,-109.5 927,-73.5 845,-73.5"/>
<text text-anchor="middle" x="886" y="-87.8" font-family="Times,serif" font-size="14.00">/when1/ccat</text>
</g>
<!-- /when1&#45;&#45;/when1/ccat -->
<g id="edge23" class="edge">
<title>/when1&#45;&#45;/when1/ccat</title>
<path fill="none" stroke="black" d="M949.67,-146.31C936.46,-135.15 919.32,-120.66 906.15,-109.53"/>
</g>
<!-- /when1/cast_dout -->
<g id="node25" class="node">
<title>/when1/cast_dout</title>
<polygon fill="none" stroke="black" points="945,-73.5 945,-109.5 1057,-109.5 1057,-73.5 945,-73.5"/>
<text text-anchor="middle" x="1001" y="-87.8" font-family="Times,serif" font-size="14.00">/when1/cast_dout</text>
</g>
<!-- /when1&#45;&#45;/when1/cast_dout -->
<g id="edge24" class="edge">
<title>/when1&#45;&#45;/when1/cast_dout</title>
<path fill="none" stroke="black" d="M977.5,-146.31C982.38,-135.15 988.7,-120.66 993.56,-109.53"/>
</g>
<!-- /when1/filt -->
<g id="node26" class="node">
<title>/when1/filt</title>
<polygon fill="none" stroke="black" points="1142.5,-73.5 1142.5,-109.5 1217.5,-109.5 1217.5,-73.5 1142.5,-73.5"/>
<text text-anchor="middle" x="1180" y="-87.8" font-family="Times,serif" font-size="14.00">/when1/filt</text>
</g>
<!-- /when1&#45;&#45;/when1/filt -->
<g id="edge25" class="edge">
<title>/when1&#45;&#45;/when1/filt</title>
<path fill="none" stroke="black" d="M998.1,-149.7C1001.08,-148.39 1004.09,-147.13 1007,-146 1052.71,-128.23 1106.95,-112.25 1142.35,-102.48"/>
</g>
<!-- /when1/filt/ccat -->
<g id="node27" class="node">
<title>/when1/filt/ccat</title>
<polygon fill="none" stroke="black" points="948.5,-0.5 948.5,-36.5 1049.5,-36.5 1049.5,-0.5 948.5,-0.5"/>
<text text-anchor="middle" x="999" y="-14.8" font-family="Times,serif" font-size="14.00">/when1/filt/ccat</text>
</g>
<!-- /when1/filt&#45;&#45;/when1/filt/ccat -->
<g id="edge26" class="edge">
<title>/when1/filt&#45;&#45;/when1/filt/ccat</title>
<path fill="none" stroke="black" d="M1142.5,-75.79C1113.4,-64.38 1073.02,-48.53 1042.5,-36.56"/>
</g>
<!-- /when1/filt/const -->
<g id="node28" class="node">
<title>/when1/filt/const</title>
<polygon fill="none" stroke="black" points="1067.5,-0.5 1067.5,-36.5 1174.5,-36.5 1174.5,-0.5 1067.5,-0.5"/>
<text text-anchor="middle" x="1121" y="-14.8" font-family="Times,serif" font-size="14.00">/when1/filt/const</text>
</g>
<!-- /when1/filt&#45;&#45;/when1/filt/const -->
<g id="edge27" class="edge">
<title>/when1/filt&#45;&#45;/when1/filt/const</title>
<path fill="none" stroke="black" d="M1165.72,-73.31C1156.44,-62.15 1144.4,-47.66 1135.15,-36.53"/>
</g>
<!-- /when1/filt/filt -->
<g id="node29" class="node">
<title>/when1/filt/filt</title>
<polygon fill="none" stroke="black" points="1193,-0.5 1193,-36.5 1287,-36.5 1287,-0.5 1193,-0.5"/>
<text text-anchor="middle" x="1240" y="-14.8" font-family="Times,serif" font-size="14.00">/when1/filt/filt</text>
</g>
<!-- /when1/filt&#45;&#45;/when1/filt/filt -->
<g id="edge28" class="edge">
<title>/when1/filt&#45;&#45;/when1/filt/filt</title>
<path fill="none" stroke="black" d="M1194.52,-73.31C1203.96,-62.15 1216.2,-47.66 1225.61,-36.53"/>
</g>
<!-- /when1/filt/sieve_0 -->
<g id="node30" class="node">
<title>/when1/filt/sieve_0</title>
<polygon fill="none" stroke="black" points="1305,-0.5 1305,-36.5 1425,-36.5 1425,-0.5 1305,-0.5"/>
<text text-anchor="middle" x="1365" y="-14.8" font-family="Times,serif" font-size="14.00">/when1/filt/sieve_0</text>
</g>
<!-- /when1/filt&#45;&#45;/when1/filt/sieve_0 -->
<g id="edge29" class="edge">
<title>/when1/filt&#45;&#45;/when1/filt/sieve_0</title>
<path fill="none" stroke="black" d="M1217.88,-75.96C1247.69,-64.52 1289.3,-48.55 1320.66,-36.52"/>
</g>
<!-- /when1/filt/code -->
<g id="node31" class="node">
<title>/when1/filt/code</title>
<polygon fill="none" stroke="black" points="1443,-0.5 1443,-36.5 1547,-36.5 1547,-0.5 1443,-0.5"/>
<text text-anchor="middle" x="1495" y="-14.8" font-family="Times,serif" font-size="14.00">/when1/filt/code</text>
</g>
<!-- /when1/filt&#45;&#45;/when1/filt/code -->
<g id="edge30" class="edge">
<title>/when1/filt&#45;&#45;/when1/filt/code</title>
<path fill="none" stroke="black" d="M1217.63,-83.45C1267.39,-73.93 1357.68,-55.96 1434,-37 1436.89,-36.28 1439.84,-35.52 1442.82,-34.74"/>
</g>
</g>
</svg>
