<?xml version="1.0" encoding="UTF-8" standalone="no"?>
<!DOCTYPE svg PUBLIC "-//W3C//DTD SVG 1.1//EN"
 "http://www.w3.org/Graphics/SVG/1.1/DTD/svg11.dtd">
<!-- Generated by graphviz version 2.50.0 (20211204.2007)
 -->
<!-- Title: dag_graphviz_hierarchy_tree Pages: 1 -->
<svg width="494pt" height="925pt"
 viewBox="0.00 0.00 494.00 925.00" xmlns="http://www.w3.org/2000/svg" xmlns:xlink="http://www.w3.org/1999/xlink">
<g id="graph0" class="graph" transform="scale(1 1) rotate(0) translate(4 921)">
<title>dag_graphviz_hierarchy_tree</title>
<polygon fill="white" stroke="transparent" points="-4,4 -4,-921 490,-921 490,4 -4,4"/>
<!-- Top -->
<g id="node1" class="node">
<title>Top</title>
<polygon fill="none" stroke="black" points="0,-467.5 0,-503.5 54,-503.5 54,-467.5 0,-467.5"/>
<text text-anchor="middle" x="27" y="-481.8" font-family="Times,serif" font-size="14.00">Top</text>
</g>
<!-- /drv0 -->
<g id="node2" class="node">
<title>/drv0</title>
<polygon fill="none" stroke="black" points="109,-880.5 109,-916.5 163,-916.5 163,-880.5 109,-880.5"/>
<text text-anchor="middle" x="136" y="-894.8" font-family="Times,serif" font-size="14.00">/drv0</text>
</g>
<!-- Top&#45;&#45;/drv0 -->
<g id="edge1" class="edge">
<title>Top&#45;&#45;/drv0</title>
<path fill="none" stroke="black" d="M28.9,-503.5C32.59,-571.22 48.35,-809.94 90,-871.5 94.59,-878.29 101.52,-883.64 108.57,-887.73"/>
</g>
<!-- /drv1 -->
<g id="node3" class="node">
<title>/drv1</title>
<polygon fill="none" stroke="black" points="109,-825.5 109,-861.5 163,-861.5 163,-825.5 109,-825.5"/>
<text text-anchor="middle" x="136" y="-839.8" font-family="Times,serif" font-size="14.00">/drv1</text>
</g>
<!-- Top&#45;&#45;/drv1 -->
<g id="edge2" class="edge">
<title>Top&#45;&#45;/drv1</title>
<path fill="none" stroke="black" d="M29.46,-503.85C34.68,-565.58 54.03,-764.79 90,-816.5 94.68,-823.23 101.63,-828.57 108.68,-832.66"/>
</g>
<!-- /ccat0 -->
<g id="node4" class="node">
<title>/ccat0</title>
<polygon fill="none" stroke="black" points="109,-770.5 109,-806.5 163,-806.5 163,-770.5 109,-770.5"/>
<text text-anchor="middle" x="136" y="-784.8" font-family="Times,serif" font-size="14.00">/ccat0</text>
</g>
<!-- Top&#45;&#45;/ccat0 -->
<g id="edge3" class="edge">
<title>Top&#45;&#45;/ccat0</title>
<path fill="none" stroke="black" d="M27.39,-503.59C26.71,-550.75 30.75,-679.5 90,-761.5 94.8,-768.15 101.79,-773.46 108.83,-777.55"/>
</g>
<!-- /sub -->
<g id="node5" class="node">
<title>/sub</title>
<polygon fill="none" stroke="black" points="109,-715.5 109,-751.5 163,-751.5 163,-715.5 109,-715.5"/>
<text text-anchor="middle" x="136" y="-729.8" font-family="Times,serif" font-size="14.00">/sub</text>
</g>
<!-- Top&#45;&#45;/sub -->
<g id="edge4" class="edge">
<title>Top&#45;&#45;/sub</title>
<path fill="none" stroke="black" d="M28.66,-503.5C31,-543.9 41.64,-643.15 90,-706.5 94.86,-712.87 101.7,-718.06 108.58,-722.11"/>
</g>
<!-- /ccat1 -->
<g id="node6" class="node">
<title>/ccat1</title>
<polygon fill="none" stroke="black" points="109,-660.5 109,-696.5 163,-696.5 163,-660.5 109,-660.5"/>
<text text-anchor="middle" x="136" y="-674.8" font-family="Times,serif" font-size="14.00">/ccat1</text>
</g>
<!-- Top&#45;&#45;/ccat1 -->
<g id="edge5" class="edge">
<title>Top&#45;&#45;/ccat1</title>
<path fill="none" stroke="black" d="M30.74,-503.69C36.49,-536.52 52.52,-606.45 90,-651.5 95.13,-657.66 102.05,-662.78 108.92,-666.84"/>
</g>
<!-- /const0 -->
<g id="node7" class="node">
<title>/const0</title>
<polygon fill="none" stroke="black" points="108,-605.5 108,-641.5 164,-641.5 164,-605.5 108,-605.5"/>
<text text-anchor="middle" x="136" y="-619.8" font-family="Times,serif" font-size="14.00">/const0</text>
</g>
<!-- Top&#45;&#45;/const0 -->
<g id="edge6" class="edge">
<title>Top&#45;&#45;/const0</title>
<path fill="none" stroke="black" d="M34.78,-503.88C44.23,-527.55 63.27,-568.92 90,-596.5 95.07,-601.73 101.37,-606.33 107.63,-610.18"/>
</g>
<!-- /gt -->
<g id="node8" class="node">
<title>/gt</title>
<polygon fill="none" stroke="black" points="109,-550.5 109,-586.5 163,-586.5 163,-550.5 109,-550.5"/>
<text text-anchor="middle" x="136" y="-564.8" font-family="Times,serif" font-size="14.00">/gt</text>
</g>
<!-- Top&#45;&#45;/gt -->
<g id="edge7" class="edge">
<title>Top&#45;&#45;/gt</title>
<path fill="none" stroke="black" d="M46.18,-503.65C58.13,-515.13 74.38,-529.93 90,-541.5 95.86,-545.84 102.45,-550.1 108.74,-553.91"/>
</g>
<!-- /when0 -->
<g id="node9" class="node">
<title>/when0</title>
<polygon fill="none" stroke="black" points="108,-495.5 108,-531.5 164,-531.5 164,-495.5 108,-495.5"/>
<text text-anchor="middle" x="136" y="-509.8" font-family="Times,serif" font-size="14.00">/when0</text>
</g>
<!-- Top&#45;&#45;/when0 -->
<g id="edge8" class="edge">
<title>Top&#45;&#45;/when0</title>
<path fill="none" stroke="black" d="M54.18,-492.35C70.51,-496.62 91.49,-502.11 107.98,-506.43"/>
</g>
<!-- /ccat2 -->
<g id="node18" class="node">
<title>/ccat2</title>
<polygon fill="none" stroke="black" points="109,-440.5 109,-476.5 163,-476.5 163,-440.5 109,-440.5"/>
<text text-anchor="middle" x="136" y="-454.8" font-family="Times,serif" font-size="14.00">/ccat2</text>
</g>
<!-- Top&#45;&#45;/ccat2 -->
<g id="edge17" class="edge">
<title>Top&#45;&#45;/ccat2</title>
<path fill="none" stroke="black" d="M54.18,-478.9C70.76,-474.71 92.12,-469.32 108.72,-465.13"/>
</g>
<!-- /mul -->
<g id="node19" class="node">
<title>/mul</title>
<polygon fill="none" stroke="black" points="109,-385.5 109,-421.5 163,-421.5 163,-385.5 109,-385.5"/>
<text text-anchor="middle" x="136" y="-399.8" font-family="Times,serif" font-size="14.00">/mul</text>
</g>
<!-- Top&#45;&#45;/mul -->
<g id="edge18" class="edge">
<title>Top&#45;&#45;/mul</title>
<path fill="none" stroke="black" d="M47.16,-467.4C59.08,-456.5 74.96,-442.62 90,-431.5 95.92,-427.12 102.53,-422.75 108.83,-418.8"/>
</g>
<!-- /ccat3 -->
<g id="node20" class="node">
<title>/ccat3</title>
<polygon fill="none" stroke="black" points="109,-330.5 109,-366.5 163,-366.5 163,-330.5 109,-330.5"/>
<text text-anchor="middle" x="136" y="-344.8" font-family="Times,serif" font-size="14.00">/ccat3</text>
</g>
<!-- Top&#45;&#45;/ccat3 -->
<g id="edge19" class="edge">
<title>Top&#45;&#45;/ccat3</title>
<path fill="none" stroke="black" d="M35.09,-467.12C44.76,-443.88 63.9,-403.65 90,-376.5 95.36,-370.93 102.04,-366 108.61,-361.89"/>
</g>
<!-- /const1 -->
<g id="node21" class="node">
<title>/const1</title>
<polygon fill="none" stroke="black" points="108,-275.5 108,-311.5 164,-311.5 164,-275.5 108,-275.5"/>
<text text-anchor="middle" x="136" y="-289.8" font-family="Times,serif" font-size="14.00">/const1</text>
</g>
<!-- Top&#45;&#45;/const1 -->
<g id="edge20" class="edge">
<title>Top&#45;&#45;/const1</title>
<path fill="none" stroke="black" d="M30.92,-467.33C36.92,-434.88 53.28,-366.18 90,-321.5 94.79,-315.67 101.13,-310.7 107.53,-306.64"/>
</g>
<!-- /lt -->
<g id="node22" class="node">
<title>/lt</title>
<polygon fill="none" stroke="black" points="109,-220.5 109,-256.5 163,-256.5 163,-220.5 109,-220.5"/>
<text text-anchor="middle" x="136" y="-234.8" font-family="Times,serif" font-size="14.00">/lt</text>
</g>
<!-- Top&#45;&#45;/lt -->
<g id="edge21" class="edge">
<title>Top&#45;&#45;/lt</title>
<path fill="none" stroke="black" d="M28.8,-467.41C31.43,-427.31 42.6,-329.49 90,-266.5 94.87,-260.03 101.71,-254.7 108.59,-250.49"/>
</g>
<!-- /when1 -->
<g id="node23" class="node">
<title>/when1</title>
<polygon fill="none" stroke="black" points="108,-165.5 108,-201.5 164,-201.5 164,-165.5 108,-165.5"/>
<text text-anchor="middle" x="136" y="-179.8" font-family="Times,serif" font-size="14.00">/when1</text>
</g>
<!-- Top&#45;&#45;/when1 -->
<g id="edge22" class="edge">
<title>Top&#45;&#45;/when1</title>
<path fill="none" stroke="black" d="M27.5,-467.25C27.13,-420.28 31.9,-293.17 90,-211.5 94.59,-205.05 101.17,-199.78 107.89,-195.61"/>
</g>
<!-- /priority_mux -->
<g id="node32" class="node">
<title>/priority_mux</title>
<polygon fill="none" stroke="black" points="90,-110.5 90,-146.5 182,-146.5 182,-110.5 90,-110.5"/>
<text text-anchor="middle" x="136" y="-124.8" font-family="Times,serif" font-size="14.00">/priority_mux</text>
</g>
<!-- Top&#45;&#45;/priority_mux -->
<g id="edge31" class="edge">
<title>Top&#45;&#45;/priority_mux</title>
<path fill="none" stroke="black" d="M29.51,-467.28C34.87,-405.99 54.63,-208.18 90,-156.5 92.49,-152.86 95.64,-149.59 99.09,-146.7"/>
</g>
<!-- /shred -->
<g id="node33" class="node">
<title>/shred</title>
<polygon fill="none" stroke="black" points="109,-55.5 109,-91.5 163,-91.5 163,-55.5 109,-55.5"/>
<text text-anchor="middle" x="136" y="-69.8" font-family="Times,serif" font-size="14.00">/shred</text>
</g>
<!-- Top&#45;&#45;/shred -->
<g id="edge32" class="edge">
<title>Top&#45;&#45;/shred</title>
<path fill="none" stroke="black" d="M28.97,-467.15C32.86,-399.23 49.13,-162.92 90,-101.5 94.59,-94.61 101.51,-89.1 108.56,-84.85"/>
</g>
<!-- /when0/ccat -->
<g id="node10" class="node">
<title>/when0/ccat</title>
<polygon fill="none" stroke="black" points="233,-550.5 233,-586.5 315,-586.5 315,-550.5 233,-550.5"/>
<text text-anchor="middle" x="274" y="-564.8" font-family="Times,serif" font-size="14.00">/when0/ccat</text>
</g>
<!-- /when0&#45;&#45;/when0/ccat -->
<g id="edge9" class="edge">
<title>/when0&#45;&#45;/when0/ccat</title>
<path fill="none" stroke="black" d="M164.19,-524.5C183.88,-532.46 210.82,-543.35 232.96,-552.31"/>
</g>
<!-- /when0/cast_dout -->
<g id="node11" class="node">
<title>/when0/cast_dout</title>
<polygon fill="none" stroke="black" points="218,-495.5 218,-531.5 330,-531.5 330,-495.5 218,-495.5"/>
<text text-anchor="middle" x="274" y="-509.8" font-family="Times,serif" font-size="14.00">/when0/cast_dout</text>
</g>
<!-- /when0&#45;&#45;/when0/cast_dout -->
<g id="edge10" class="edge">
<title>/when0&#45;&#45;/when0/cast_dout</title>
<path fill="none" stroke="black" d="M164.19,-513.5C179.54,-513.5 199.29,-513.5 217.74,-513.5"/>
</g>
<!-- /when0/filt -->
<g id="node12" class="node">
<title>/when0/filt</title>
<polygon fill="none" stroke="black" points="236.5,-440.5 236.5,-476.5 311.5,-476.5 311.5,-440.5 236.5,-440.5"/>
<text text-anchor="middle" x="274" y="-454.8" font-family="Times,serif" font-size="14.00">/when0/filt</text>
</g>
<!-- /when0&#45;&#45;/when0/filt -->
<g id="edge11" class="edge">
<title>/when0&#45;&#45;/when0/filt</title>
<path fill="none" stroke="black" d="M164.19,-502.5C184.89,-494.13 213.59,-482.53 236.32,-473.33"/>
</g>
<!-- /when0/filt/ccat -->
<g id="node13" class="node">
<title>/when0/filt/ccat</title>
<polygon fill="none" stroke="black" points="375.5,-550.5 375.5,-586.5 476.5,-586.5 476.5,-550.5 375.5,-550.5"/>
<text text-anchor="middle" x="426" y="-564.8" font-family="Times,serif" font-size="14.00">/when0/filt/ccat</text>
</g>
<!-- /when0/filt&#45;&#45;/when0/filt/ccat -->
<g id="edge12" class="edge">
<title>/when0/filt&#45;&#45;/when0/filt/ccat</title>
<path fill="none" stroke="black" d="M311.64,-473.75C318.15,-477.38 324.58,-481.64 330,-486.5 351.75,-506.01 343.85,-522.45 366,-541.5 369.84,-544.81 374.16,-547.78 378.66,-550.45"/>
</g>
<!-- /when0/filt/const -->
<g id="node14" class="node">
<title>/when0/filt/const</title>
<polygon fill="none" stroke="black" points="372.5,-495.5 372.5,-531.5 479.5,-531.5 479.5,-495.5 372.5,-495.5"/>
<text text-anchor="middle" x="426" y="-509.8" font-family="Times,serif" font-size="14.00">/when0/filt/const</text>
</g>
<!-- /when0/filt&#45;&#45;/when0/filt/const -->
<g id="edge13" class="edge">
<title>/when0/filt&#45;&#45;/when0/filt/const</title>
<path fill="none" stroke="black" d="M311.69,-471.95C330.95,-479.01 354.81,-487.76 375.66,-495.41"/>
</g>
<!-- /when0/filt/filt -->
<g id="node15" class="node">
<title>/when0/filt/filt</title>
<polygon fill="none" stroke="black" points="379,-440.5 379,-476.5 473,-476.5 473,-440.5 379,-440.5"/>
<text text-anchor="middle" x="426" y="-454.8" font-family="Times,serif" font-size="14.00">/when0/filt/filt</text>
</g>
<!-- /when0/filt&#45;&#45;/when0/filt/filt -->
<g id="edge14" class="edge">
<title>/when0/filt&#45;&#45;/when0/filt/filt</title>
<path fill="none" stroke="black" d="M311.69,-458.5C331.9,-458.5 357.18,-458.5 378.74,-458.5"/>
</g>
<!-- /when0/filt/sieve_0 -->
<g id="node16" class="node">
<title>/when0/filt/sieve_0</title>
<polygon fill="none" stroke="black" points="366,-385.5 366,-421.5 486,-421.5 486,-385.5 366,-385.5"/>
<text text-anchor="middle" x="426" y="-399.8" font-family="Times,serif" font-size="14.00">/when0/filt/sieve_0</text>
</g>
<!-- /when0/filt&#45;&#45;/when0/filt/sieve_0 -->
<g id="edge15" class="edge">
<title>/when0/filt&#45;&#45;/when0/filt/sieve_0</title>
<path fill="none" stroke="black" d="M311.69,-445.05C330.95,-437.99 354.81,-429.24 375.66,-421.59"/>
</g>
<!-- /when0/filt/code -->
<g id="node17" class="node">
<title>/when0/filt/code</title>
<polygon fill="none" stroke="black" points="374,-330.5 374,-366.5 478,-366.5 478,-330.5 374,-330.5"/>
<text text-anchor="middle" x="426" y="-344.8" font-family="Times,serif" font-size="14.00">/when0/filt/code</text>
</g>
<!-- /when0/filt&#45;&#45;/when0/filt/code -->
<g id="edge16" class="edge">
<title>/when0/filt&#45;&#45;/when0/filt/code</title>
<path fill="none" stroke="black" d="M292.18,-440.19C309.58,-422.35 337.87,-395.26 366,-376.5 371.28,-372.98 377.08,-369.65 382.91,-366.62"/>
</g>
<!-- /when1/ccat -->
<g id="node24" class="node">
<title>/when1/ccat</title>
<polygon fill="none" stroke="black" points="233,-220.5 233,-256.5 315,-256.5 315,-220.5 233,-220.5"/>
<text text-anchor="middle" x="274" y="-234.8" font-family="Times,serif" font-size="14.00">/when1/ccat</text>
</g>
<!-- /when1&#45;&#45;/when1/ccat -->
<g id="edge23" class="edge">
<title>/when1&#45;&#45;/when1/ccat</title>
<path fill="none" stroke="black" d="M164.19,-194.5C183.88,-202.46 210.82,-213.35 232.96,-222.31"/>
</g>
<!-- /when1/cast_dout -->
<g id="node25" class="node">
<title>/when1/cast_dout</title>
<polygon fill="none" stroke="black" points="218,-165.5 218,-201.5 330,-201.5 330,-165.5 218,-165.5"/>
<text text-anchor="middle" x="274" y="-179.8" font-family="Times,serif" font-size="14.00">/when1/cast_dout</text>
</g>
<!-- /when1&#45;&#45;/when1/cast_dout -->
<g id="edge24" class="edge">
<title>/when1&#45;&#45;/when1/cast_dout</title>
<path fill="none" stroke="black" d="M164.19,-183.5C179.54,-183.5 199.29,-183.5 217.74,-183.5"/>
</g>
<!-- /when1/filt -->
<g id="node26" class="node">
<title>/when1/filt</title>
<polygon fill="none" stroke="black" points="236.5,-110.5 236.5,-146.5 311.5,-146.5 311.5,-110.5 236.5,-110.5"/>
<text text-anchor="middle" x="274" y="-124.8" font-family="Times,serif" font-size="14.00">/when1/filt</text>
</g>
<!-- /when1&#45;&#45;/when1/filt -->
<g id="edge25" class="edge">
<title>/when1&#45;&#45;/when1/filt</title>
<path fill="none" stroke="black" d="M164.19,-172.5C184.89,-164.13 213.59,-152.53 236.32,-143.33"/>
</g>
<!-- /when1/filt/ccat -->
<g id="node27" class="node">
<title>/when1/filt/ccat</title>
<polygon fill="none" stroke="black" points="375.5,-220.5 375.5,-256.5 476.5,-256.5 476.5,-220.5 375.5,-220.5"/>
<text text-anchor="middle" x="426" y="-234.8" font-family="Times,serif" font-size="14.00">/when1/filt/ccat</text>
</g>
<!-- /when1/filt&#45;&#45;/when1/filt/ccat -->
<g id="edge26" class="edge">
<title>/when1/filt&#45;&#45;/when1/filt/ccat</title>
<path fill="none" stroke="black" d="M311.64,-143.75C318.15,-147.38 324.58,-151.64 330,-156.5 351.75,-176.01 343.85,-192.45 366,-211.5 369.84,-214.81 374.16,-217.78 378.66,-220.45"/>
</g>
<!-- /when1/filt/const -->
<g id="node28" class="node">
<title>/when1/filt/const</title>
<polygon fill="none" stroke="black" points="372.5,-165.5 372.5,-201.5 479.5,-201.5 479.5,-165.5 372.5,-165.5"/>
<text text-anchor="middle" x="426" y="-179.8" font-family="Times,serif" font-size="14.00">/when1/filt/const</text>
</g>
<!-- /when1/filt&#45;&#45;/when1/filt/const -->
<g id="edge27" class="edge">
<title>/when1/filt&#45;&#45;/when1/filt/const</title>
<path fill="none" stroke="black" d="M311.69,-141.95C330.95,-149.01 354.81,-157.76 375.66,-165.41"/>
</g>
<!-- /when1/filt/filt -->
<g id="node29" class="node">
<title>/when1/filt/filt</title>
<polygon fill="none" stroke="black" points="379,-110.5 379,-146.5 473,-146.5 473,-110.5 379,-110.5"/>
<text text-anchor="middle" x="426" y="-124.8" font-family="Times,serif" font-size="14.00">/when1/filt/filt</text>
</g>
<!-- /when1/filt&#45;&#45;/when1/filt/filt -->
<g id="edge28" class="edge">
<title>/when1/filt&#45;&#45;/when1/filt/filt</title>
<path fill="none" stroke="black" d="M311.69,-128.5C331.9,-128.5 357.18,-128.5 378.74,-128.5"/>
</g>
<!-- /when1/filt/sieve_0 -->
<g id="node30" class="node">
<title>/when1/filt/sieve_0</title>
<polygon fill="none" stroke="black" points="366,-55.5 366,-91.5 486,-91.5 486,-55.5 366,-55.5"/>
<text text-anchor="middle" x="426" y="-69.8" font-family="Times,serif" font-size="14.00">/when1/filt/sieve_0</text>
</g>
<!-- /when1/filt&#45;&#45;/when1/filt/sieve_0 -->
<g id="edge29" class="edge">
<title>/when1/filt&#45;&#45;/when1/filt/sieve_0</title>
<path fill="none" stroke="black" d="M311.69,-115.05C330.95,-107.99 354.81,-99.24 375.66,-91.59"/>
</g>
<!-- /when1/filt/code -->
<g id="node31" class="node">
<title>/when1/filt/code</title>
<polygon fill="none" stroke="black" points="374,-0.5 374,-36.5 478,-36.5 478,-0.5 374,-0.5"/>
<text text-anchor="middle" x="426" y="-14.8" font-family="Times,serif" font-size="14.00">/when1/filt/code</text>
</g>
<!-- /when1/filt&#45;&#45;/when1/filt/code -->
<g id="edge30" class="edge">
<title>/when1/filt&#45;&#45;/when1/filt/code</title>
<path fill="none" stroke="black" d="M292.18,-110.19C309.58,-92.35 337.87,-65.26 366,-46.5 371.28,-42.98 377.08,-39.65 382.91,-36.62"/>
</g>
</g>
</svg>
