<?xml version="1.0" encoding="UTF-8" standalone="no"?>
<!DOCTYPE svg PUBLIC "-//W3C//DTD SVG 1.1//EN"
 "http://www.w3.org/Graphics/SVG/1.1/DTD/svg11.dtd">
<!-- Generated by graphviz version 2.50.0 (20211204.2007)
 -->
<!-- Title: dag_graphviz_dag Pages: 1 -->
<svg width="2418pt" height="392pt"
 viewBox="0.00 0.00 2418.00 392.00" xmlns="http://www.w3.org/2000/svg" xmlns:xlink="http://www.w3.org/1999/xlink">
<g id="graph0" class="graph" transform="scale(1 1) rotate(0) translate(4 388)">
<title>dag_graphviz_dag</title>
<polygon fill="white" stroke="transparent" points="-4,4 -4,-388 2414,-388 2414,4 -4,4"/>
<g id="clust1" class="cluster">
<title>cluster_</title>
<path fill="#888888" fill-opacity="0.466667" stroke="black" d="M20,-8C20,-8 2390,-8 2390,-8 2396,-8 2402,-14 2402,-20 2402,-20 2402,-364 2402,-364 2402,-370 2396,-376 2390,-376 2390,-376 20,-376 20,-376 14,-376 8,-370 8,-364 8,-364 8,-20 8,-20 8,-14 14,-8 20,-8"/>
</g>
<g id="clust2" class="cluster">
<title>cluster_/when0</title>
<path fill="#888888" fill-opacity="0.466667" stroke="black" d="M791,-196C791,-196 2048,-196 2048,-196 2054,-196 2060,-202 2060,-208 2060,-208 2060,-356 2060,-356 2060,-362 2054,-368 2048,-368 2048,-368 791,-368 791,-368 785,-368 779,-362 779,-356 779,-356 779,-208 779,-208 779,-202 785,-196 791,-196"/>
<text text-anchor="middle" x="1419.5" y="-352.8" font-family="Times,serif" font-size="14.00" fill="#ffffff">when0</text>
</g>
<g id="clust3" class="cluster">
<title>cluster_/when0/filt</title>
<path fill="#888888" fill-opacity="0.466667" stroke="black" d="M1000.5,-250C1000.5,-250 2040,-250 2040,-250 2046,-250 2052,-256 2052,-262 2052,-262 2052,-325 2052,-325 2052,-331 2046,-337 2040,-337 2040,-337 1000.5,-337 1000.5,-337 994.5,-337 988.5,-331 988.5,-325 988.5,-325 988.5,-262 988.5,-262 988.5,-256 994.5,-250 1000.5,-250"/>
<text text-anchor="middle" x="1520.25" y="-321.8" font-family="Times,serif" font-size="14.00" fill="#ffffff">filt</text>
</g>
<g id="clust4" class="cluster">
<title>cluster_/when1</title>
<path fill="#888888" fill-opacity="0.466667" stroke="black" d="M791,-16C791,-16 2048,-16 2048,-16 2054,-16 2060,-22 2060,-28 2060,-28 2060,-176 2060,-176 2060,-182 2054,-188 2048,-188 2048,-188 791,-188 791,-188 785,-188 779,-182 779,-176 779,-176 779,-28 779,-28 779,-22 785,-16 791,-16"/>
<text text-anchor="middle" x="1419.5" y="-172.8" font-family="Times,serif" font-size="14.00" fill="#ffffff">when1</text>
</g>
<g id="clust5" class="cluster">
<title>cluster_/when1/filt</title>
<path fill="#888888" fill-opacity="0.466667" stroke="black" d="M1000.5,-70C1000.5,-70 2040,-70 2040,-70 2046,-70 2052,-76 2052,-82 2052,-82 2052,-145 2052,-145 2052,-151 2046,-157 2040,-157 2040,-157 1000.5,-157 1000.5,-157 994.5,-157 988.5,-151 988.5,-145 988.5,-145 988.5,-82 988.5,-82 988.5,-76 994.5,-70 1000.5,-70"/>
<text text-anchor="middle" x="1520.25" y="-141.8" font-family="Times,serif" font-size="14.00" fill="#ffffff">filt</text>
</g>
<!-- /drv0 -->
<g id="node1" class="node">
<title>/drv0</title>
<path fill="#222222" fill-opacity="0.133333" stroke="black" d="M28,-211C28,-211 110,-211 110,-211 116,-211 122,-217 122,-223 122,-223 122,-235 122,-235 122,-241 116,-247 110,-247 110,-247 28,-247 28,-247 22,-247 16,-241 16,-235 16,-235 16,-223 16,-223 16,-217 22,-211 28,-211"/>
<text text-anchor="middle" x="26" y="-225.3" font-family="Times,serif" font-size="14.00" fill="#ffffff"> </text>
<polyline fill="none" stroke="black" points="36,-211 36,-247 "/>
<text text-anchor="middle" x="58.5" y="-225.3" font-family="Times,serif" font-size="14.00" fill="#ffffff">/drv0</text>
<polyline fill="none" stroke="black" points="81,-211 81,-247 "/>
<text text-anchor="middle" x="101.5" y="-225.3" font-family="Times,serif" font-size="14.00" fill="#ffffff">dout</text>
</g>
<!-- /ccat0 -->
<g id="node3" class="node">
<title>/ccat0</title>
<path fill="#222222" fill-opacity="0.133333" stroke="black" d="M170,-194C170,-194 277,-194 277,-194 283,-194 289,-200 289,-206 289,-206 289,-228 289,-228 289,-234 283,-240 277,-240 277,-240 170,-240 170,-240 164,-240 158,-234 158,-228 158,-228 158,-206 158,-206 158,-200 164,-194 170,-194"/>
<text text-anchor="middle" x="178.5" y="-224.8" font-family="Times,serif" font-size="14.00" fill="#ffffff">din0</text>
<polyline fill="none" stroke="black" points="158,-217 199,-217 "/>
<text text-anchor="middle" x="178.5" y="-201.8" font-family="Times,serif" font-size="14.00" fill="#ffffff">din1</text>
<polyline fill="none" stroke="black" points="199,-194 199,-240 "/>
<text text-anchor="middle" x="223.5" y="-213.3" font-family="Times,serif" font-size="14.00" fill="#ffffff">/ccat0</text>
<polyline fill="none" stroke="black" points="248,-194 248,-240 "/>
<text text-anchor="middle" x="268.5" y="-213.3" font-family="Times,serif" font-size="14.00" fill="#ffffff">dout</text>
</g>
<!-- /drv0&#45;&gt;/ccat0 -->
<g id="edge1" class="edge">
<title>/drv0:dout&#45;&gt;/ccat0:din0</title>
<path fill="none" stroke="black" d="M122,-229C134,-229 139.25,-229 147.88,-229"/>
<polygon fill="black" stroke="black" points="148,-232.5 158,-229 148,-225.5 148,-232.5"/>
</g>
<!-- /when0/ccat -->
<g id="node8" class="node">
<title>/when0/ccat</title>
<path fill="#222222" fill-opacity="0.133333" stroke="black" d="M799,-207C799,-207 939,-207 939,-207 945,-207 951,-213 951,-219 951,-219 951,-241 951,-241 951,-247 945,-253 939,-253 939,-253 799,-253 799,-253 793,-253 787,-247 787,-241 787,-241 787,-219 787,-219 787,-213 793,-207 799,-207"/>
<text text-anchor="middle" x="807.5" y="-237.8" font-family="Times,serif" font-size="14.00" fill="#ffffff">din0</text>
<polyline fill="none" stroke="black" points="787,-230 828,-230 "/>
<text text-anchor="middle" x="807.5" y="-214.8" font-family="Times,serif" font-size="14.00" fill="#ffffff">din1</text>
<polyline fill="none" stroke="black" points="828,-207 828,-253 "/>
<text text-anchor="middle" x="869" y="-226.3" font-family="Times,serif" font-size="14.00" fill="#ffffff">/when0/ccat</text>
<polyline fill="none" stroke="black" points="910,-207 910,-253 "/>
<text text-anchor="middle" x="930.5" y="-226.3" font-family="Times,serif" font-size="14.00" fill="#ffffff">dout</text>
</g>
<!-- /drv0&#45;&gt;/when0/ccat -->
<g id="edge16" class="edge">
<title>/drv0:dout&#45;&gt;/when0/ccat:din0</title>
<path fill="none" stroke="black" d="M122,-229C140.52,-229 140.34,-244.42 158,-250 253.48,-280.19 282.37,-269 382.5,-269 382.5,-269 382.5,-269 544.5,-269 636.85,-269 659.24,-256.35 751,-246 762.55,-244.7 767.61,-243.12 775.85,-242.4"/>
<polygon fill="black" stroke="black" points="776.15,-245.89 786,-242 775.87,-238.9 776.15,-245.89"/>
</g>
<!-- /ccat2 -->
<g id="node15" class="node">
<title>/ccat2</title>
<path fill="#222222" fill-opacity="0.133333" stroke="black" d="M170,-112C170,-112 277,-112 277,-112 283,-112 289,-118 289,-124 289,-124 289,-146 289,-146 289,-152 283,-158 277,-158 277,-158 170,-158 170,-158 164,-158 158,-152 158,-146 158,-146 158,-124 158,-124 158,-118 164,-112 170,-112"/>
<text text-anchor="middle" x="178.5" y="-142.8" font-family="Times,serif" font-size="14.00" fill="#ffffff">din0</text>
<polyline fill="none" stroke="black" points="158,-135 199,-135 "/>
<text text-anchor="middle" x="178.5" y="-119.8" font-family="Times,serif" font-size="14.00" fill="#ffffff">din1</text>
<polyline fill="none" stroke="black" points="199,-112 199,-158 "/>
<text text-anchor="middle" x="223.5" y="-131.3" font-family="Times,serif" font-size="14.00" fill="#ffffff">/ccat2</text>
<polyline fill="none" stroke="black" points="248,-112 248,-158 "/>
<text text-anchor="middle" x="268.5" y="-131.3" font-family="Times,serif" font-size="14.00" fill="#ffffff">dout</text>
</g>
<!-- /drv0&#45;&gt;/ccat2 -->
<g id="edge2" class="edge">
<title>/drv0:dout&#45;&gt;/ccat2:din0</title>
<path fill="none" stroke="black" d="M122,-229C157.76,-229 126.19,-162.81 148.28,-149.37"/>
<polygon fill="black" stroke="black" points="149.11,-152.77 158,-147 147.46,-145.96 149.11,-152.77"/>
</g>
<!-- /drv1 -->
<g id="node2" class="node">
<title>/drv1</title>
<path fill="#222222" fill-opacity="0.133333" stroke="black" d="M28,-105C28,-105 110,-105 110,-105 116,-105 122,-111 122,-117 122,-117 122,-129 122,-129 122,-135 116,-141 110,-141 110,-141 28,-141 28,-141 22,-141 16,-135 16,-129 16,-129 16,-117 16,-117 16,-111 22,-105 28,-105"/>
<text text-anchor="middle" x="26" y="-119.3" font-family="Times,serif" font-size="14.00" fill="#ffffff"> </text>
<polyline fill="none" stroke="black" points="36,-105 36,-141 "/>
<text text-anchor="middle" x="58.5" y="-119.3" font-family="Times,serif" font-size="14.00" fill="#ffffff">/drv1</text>
<polyline fill="none" stroke="black" points="81,-105 81,-141 "/>
<text text-anchor="middle" x="101.5" y="-119.3" font-family="Times,serif" font-size="14.00" fill="#ffffff">dout</text>
</g>
<!-- /drv1&#45;&gt;/ccat0 -->
<g id="edge3" class="edge">
<title>/drv1:dout&#45;&gt;/ccat0:din1</title>
<path fill="none" stroke="black" d="M122,-123C157.76,-123 126.19,-189.19 148.28,-202.63"/>
<polygon fill="black" stroke="black" points="147.46,-206.04 158,-205 149.11,-199.23 147.46,-206.04"/>
</g>
<!-- /drv1&#45;&gt;/ccat2 -->
<g id="edge4" class="edge">
<title>/drv1:dout&#45;&gt;/ccat2:din1</title>
<path fill="none" stroke="black" d="M122,-123C134,-123 139.25,-123 147.88,-123"/>
<polygon fill="black" stroke="black" points="148,-126.5 158,-123 148,-119.5 148,-126.5"/>
</g>
<!-- /when1/ccat -->
<g id="node20" class="node">
<title>/when1/ccat</title>
<path fill="#222222" fill-opacity="0.133333" stroke="black" d="M799,-29C799,-29 939,-29 939,-29 945,-29 951,-35 951,-41 951,-41 951,-63 951,-63 951,-69 945,-75 939,-75 939,-75 799,-75 799,-75 793,-75 787,-69 787,-63 787,-63 787,-41 787,-41 787,-35 793,-29 799,-29"/>
<text text-anchor="middle" x="807.5" y="-59.8" font-family="Times,serif" font-size="14.00" fill="#ffffff">din0</text>
<polyline fill="none" stroke="black" points="787,-52 828,-52 "/>
<text text-anchor="middle" x="807.5" y="-36.8" font-family="Times,serif" font-size="14.00" fill="#ffffff">din1</text>
<polyline fill="none" stroke="black" points="828,-29 828,-75 "/>
<text text-anchor="middle" x="869" y="-48.3" font-family="Times,serif" font-size="14.00" fill="#ffffff">/when1/ccat</text>
<polyline fill="none" stroke="black" points="910,-29 910,-75 "/>
<text text-anchor="middle" x="930.5" y="-48.3" font-family="Times,serif" font-size="14.00" fill="#ffffff">dout</text>
</g>
<!-- /drv1&#45;&gt;/when1/ccat -->
<g id="edge24" class="edge">
<title>/drv1:dout&#45;&gt;/when1/ccat:din0</title>
<path fill="none" stroke="black" d="M122,-123C140.3,-123 140.5,-108.37 158,-103 253.76,-73.59 282.33,-83 382.5,-83 382.5,-83 382.5,-83 544.5,-83 636.52,-83 659.38,-76.56 751,-68 762.57,-66.92 767.62,-65.24 775.86,-64.44"/>
<polygon fill="black" stroke="black" points="776.16,-67.94 786,-64 775.86,-60.94 776.16,-67.94"/>
</g>
<!-- /sub -->
<g id="node4" class="node">
<title>/sub</title>
<path fill="#222222" fill-opacity="0.133333" stroke="black" d="M338.5,-213C338.5,-213 428.5,-213 428.5,-213 434.5,-213 440.5,-219 440.5,-225 440.5,-225 440.5,-237 440.5,-237 440.5,-243 434.5,-249 428.5,-249 428.5,-249 338.5,-249 338.5,-249 332.5,-249 326.5,-243 326.5,-237 326.5,-237 326.5,-225 326.5,-225 326.5,-219 332.5,-213 338.5,-213"/>
<text text-anchor="middle" x="343.5" y="-227.3" font-family="Times,serif" font-size="14.00" fill="#ffffff">din</text>
<polyline fill="none" stroke="black" points="360.5,-213 360.5,-249 "/>
<text text-anchor="middle" x="380" y="-227.3" font-family="Times,serif" font-size="14.00" fill="#ffffff">/sub</text>
<polyline fill="none" stroke="black" points="399.5,-213 399.5,-249 "/>
<text text-anchor="middle" x="420" y="-227.3" font-family="Times,serif" font-size="14.00" fill="#ffffff">dout</text>
</g>
<!-- /ccat0&#45;&gt;/sub -->
<g id="edge5" class="edge">
<title>/ccat0:dout&#45;&gt;/sub:din</title>
<path fill="none" stroke="black" d="M289,-217C302.3,-217 306.45,-225.21 315.46,-229.05"/>
<polygon fill="black" stroke="black" points="315.02,-232.53 325.5,-231 316.35,-225.66 315.02,-232.53"/>
</g>
<!-- /ccat1 -->
<g id="node5" class="node">
<title>/ccat1</title>
<path fill="#222222" fill-opacity="0.133333" stroke="black" d="M490,-195C490,-195 597,-195 597,-195 603,-195 609,-201 609,-207 609,-207 609,-229 609,-229 609,-235 603,-241 597,-241 597,-241 490,-241 490,-241 484,-241 478,-235 478,-229 478,-229 478,-207 478,-207 478,-201 484,-195 490,-195"/>
<text text-anchor="middle" x="498.5" y="-225.8" font-family="Times,serif" font-size="14.00" fill="#ffffff">din0</text>
<polyline fill="none" stroke="black" points="478,-218 519,-218 "/>
<text text-anchor="middle" x="498.5" y="-202.8" font-family="Times,serif" font-size="14.00" fill="#ffffff">din1</text>
<polyline fill="none" stroke="black" points="519,-195 519,-241 "/>
<text text-anchor="middle" x="543.5" y="-214.3" font-family="Times,serif" font-size="14.00" fill="#ffffff">/ccat1</text>
<polyline fill="none" stroke="black" points="568,-195 568,-241 "/>
<text text-anchor="middle" x="588.5" y="-214.3" font-family="Times,serif" font-size="14.00" fill="#ffffff">dout</text>
</g>
<!-- /sub&#45;&gt;/ccat1 -->
<g id="edge6" class="edge">
<title>/sub:dout&#45;&gt;/ccat1:din0</title>
<path fill="none" stroke="black" d="M441.5,-231C453.67,-231 458.99,-230.44 467.73,-230.16"/>
<polygon fill="black" stroke="black" points="468.05,-233.65 478,-230 467.95,-226.65 468.05,-233.65"/>
</g>
<!-- /gt -->
<g id="node7" class="node">
<title>/gt</title>
<path fill="#222222" fill-opacity="0.133333" stroke="black" d="M657,-200C657,-200 739,-200 739,-200 745,-200 751,-206 751,-212 751,-212 751,-224 751,-224 751,-230 745,-236 739,-236 739,-236 657,-236 657,-236 651,-236 645,-230 645,-224 645,-224 645,-212 645,-212 645,-206 651,-200 657,-200"/>
<text text-anchor="middle" x="662" y="-214.3" font-family="Times,serif" font-size="14.00" fill="#ffffff">din</text>
<polyline fill="none" stroke="black" points="679,-200 679,-236 "/>
<text text-anchor="middle" x="694.5" y="-214.3" font-family="Times,serif" font-size="14.00" fill="#ffffff">/gt</text>
<polyline fill="none" stroke="black" points="710,-200 710,-236 "/>
<text text-anchor="middle" x="730.5" y="-214.3" font-family="Times,serif" font-size="14.00" fill="#ffffff">dout</text>
</g>
<!-- /ccat1&#45;&gt;/gt -->
<g id="edge8" class="edge">
<title>/ccat1:dout&#45;&gt;/gt:din</title>
<path fill="none" stroke="black" d="M609,-218C621,-218 626.25,-218 634.88,-218"/>
<polygon fill="black" stroke="black" points="635,-221.5 645,-218 635,-214.5 635,-221.5"/>
</g>
<!-- /const0 -->
<g id="node6" class="node">
<title>/const0</title>
<path fill="#222222" fill-opacity="0.133333" stroke="black" d="M337,-158C337,-158 430,-158 430,-158 436,-158 442,-164 442,-170 442,-170 442,-182 442,-182 442,-188 436,-194 430,-194 430,-194 337,-194 337,-194 331,-194 325,-188 325,-182 325,-182 325,-170 325,-170 325,-164 331,-158 337,-158"/>
<text text-anchor="middle" x="335" y="-172.3" font-family="Times,serif" font-size="14.00" fill="#ffffff"> </text>
<polyline fill="none" stroke="black" points="345,-158 345,-194 "/>
<text text-anchor="middle" x="373" y="-172.3" font-family="Times,serif" font-size="14.00" fill="#ffffff">/const0</text>
<polyline fill="none" stroke="black" points="401,-158 401,-194 "/>
<text text-anchor="middle" x="421.5" y="-172.3" font-family="Times,serif" font-size="14.00" fill="#ffffff">dout</text>
</g>
<!-- /const0&#45;&gt;/ccat1 -->
<g id="edge7" class="edge">
<title>/const0:dout&#45;&gt;/ccat1:din1</title>
<path fill="none" stroke="black" d="M442,-176C458.76,-176 458.37,-195.43 468.43,-203.01"/>
<polygon fill="black" stroke="black" points="467.41,-206.36 478,-206 469.5,-199.68 467.41,-206.36"/>
</g>
<!-- /gt&#45;&gt;/when0/ccat -->
<g id="edge17" class="edge">
<title>/gt:dout&#45;&gt;/when0/ccat:din1</title>
<path fill="none" stroke="black" d="M751,-218C762.55,-218 767.66,-218 775.9,-218"/>
<polygon fill="black" stroke="black" points="776,-221.5 786,-218 776,-214.5 776,-221.5"/>
</g>
<!-- /when0/cast_dout -->
<g id="node9" class="node">
<title>/when0/cast_dout</title>
<path fill="#222222" fill-opacity="0.133333" stroke="black" d="M999,-205C999,-205 1162,-205 1162,-205 1168,-205 1174,-211 1174,-217 1174,-217 1174,-229 1174,-229 1174,-235 1168,-241 1162,-241 1162,-241 999,-241 999,-241 993,-241 987,-235 987,-229 987,-229 987,-217 987,-217 987,-211 993,-205 999,-205"/>
<text text-anchor="middle" x="1004" y="-219.3" font-family="Times,serif" font-size="14.00" fill="#ffffff">din</text>
<polyline fill="none" stroke="black" points="1021,-205 1021,-241 "/>
<text text-anchor="middle" x="1077" y="-219.3" font-family="Times,serif" font-size="14.00" fill="#ffffff">/when0/cast_dout</text>
<polyline fill="none" stroke="black" points="1133,-205 1133,-241 "/>
<text text-anchor="middle" x="1153.5" y="-219.3" font-family="Times,serif" font-size="14.00" fill="#ffffff">dout</text>
</g>
<!-- /when0/ccat&#45;&gt;/when0/cast_dout -->
<g id="edge18" class="edge">
<title>/when0/ccat:dout&#45;&gt;/when0/cast_dout:din</title>
<path fill="none" stroke="black" d="M951,-230C963.22,-230 968.19,-226.06 976.79,-224.09"/>
<polygon fill="black" stroke="black" points="977.43,-227.55 987,-223 976.68,-220.59 977.43,-227.55"/>
</g>
<!-- /when0/filt/ccat -->
<g id="node10" class="node">
<title>/when0/filt/ccat</title>
<path fill="#222222" fill-opacity="0.133333" stroke="black" d="M1222,-259C1222,-259 1381,-259 1381,-259 1387,-259 1393,-265 1393,-271 1393,-271 1393,-293 1393,-293 1393,-299 1387,-305 1381,-305 1381,-305 1222,-305 1222,-305 1216,-305 1210,-299 1210,-293 1210,-293 1210,-271 1210,-271 1210,-265 1216,-259 1222,-259"/>
<text text-anchor="middle" x="1230.5" y="-289.8" font-family="Times,serif" font-size="14.00" fill="#ffffff">din0</text>
<polyline fill="none" stroke="black" points="1210,-282 1251,-282 "/>
<text text-anchor="middle" x="1230.5" y="-266.8" font-family="Times,serif" font-size="14.00" fill="#ffffff">din1</text>
<polyline fill="none" stroke="black" points="1251,-259 1251,-305 "/>
<text text-anchor="middle" x="1301.5" y="-278.3" font-family="Times,serif" font-size="14.00" fill="#ffffff">/when0/filt/ccat</text>
<polyline fill="none" stroke="black" points="1352,-259 1352,-305 "/>
<text text-anchor="middle" x="1372.5" y="-278.3" font-family="Times,serif" font-size="14.00" fill="#ffffff">dout</text>
</g>
<!-- /when0/cast_dout&#45;&gt;/when0/filt/ccat -->
<g id="edge19" class="edge">
<title>/when0/cast_dout:dout&#45;&gt;/when0/filt/ccat:din0</title>
<path fill="none" stroke="black" d="M1174,-223C1205.23,-223 1181.8,-278.33 1200.23,-291.3"/>
<polygon fill="black" stroke="black" points="1199.43,-294.71 1210,-294 1201.29,-287.97 1199.43,-294.71"/>
</g>
<!-- /when0/filt/filt -->
<g id="node12" class="node">
<title>/when0/filt/filt</title>
<path fill="#222222" fill-opacity="0.133333" stroke="black" d="M1441,-263C1441,-263 1586,-263 1586,-263 1592,-263 1598,-269 1598,-275 1598,-275 1598,-287 1598,-287 1598,-293 1592,-299 1586,-299 1586,-299 1441,-299 1441,-299 1435,-299 1429,-293 1429,-287 1429,-287 1429,-275 1429,-275 1429,-269 1435,-263 1441,-263"/>
<text text-anchor="middle" x="1446" y="-277.3" font-family="Times,serif" font-size="14.00" fill="#ffffff">din</text>
<polyline fill="none" stroke="black" points="1463,-263 1463,-299 "/>
<text text-anchor="middle" x="1510" y="-277.3" font-family="Times,serif" font-size="14.00" fill="#ffffff">/when0/filt/filt</text>
<polyline fill="none" stroke="black" points="1557,-263 1557,-299 "/>
<text text-anchor="middle" x="1577.5" y="-277.3" font-family="Times,serif" font-size="14.00" fill="#ffffff">dout</text>
</g>
<!-- /when0/filt/ccat&#45;&gt;/when0/filt/filt -->
<g id="edge21" class="edge">
<title>/when0/filt/ccat:dout&#45;&gt;/when0/filt/filt:din</title>
<path fill="none" stroke="black" d="M1393,-282C1405,-282 1410.25,-281.44 1418.87,-281.16"/>
<polygon fill="black" stroke="black" points="1419.06,-284.65 1429,-281 1418.95,-277.65 1419.06,-284.65"/>
</g>
<!-- /when0/filt/const -->
<g id="node11" class="node">
<title>/when0/filt/const</title>
<path fill="#222222" fill-opacity="0.133333" stroke="black" d="M1008.5,-260C1008.5,-260 1152.5,-260 1152.5,-260 1158.5,-260 1164.5,-266 1164.5,-272 1164.5,-272 1164.5,-284 1164.5,-284 1164.5,-290 1158.5,-296 1152.5,-296 1152.5,-296 1008.5,-296 1008.5,-296 1002.5,-296 996.5,-290 996.5,-284 996.5,-284 996.5,-272 996.5,-272 996.5,-266 1002.5,-260 1008.5,-260"/>
<text text-anchor="middle" x="1006.5" y="-274.3" font-family="Times,serif" font-size="14.00" fill="#ffffff"> </text>
<polyline fill="none" stroke="black" points="1016.5,-260 1016.5,-296 "/>
<text text-anchor="middle" x="1070" y="-274.3" font-family="Times,serif" font-size="14.00" fill="#ffffff">/when0/filt/const</text>
<polyline fill="none" stroke="black" points="1123.5,-260 1123.5,-296 "/>
<text text-anchor="middle" x="1144" y="-274.3" font-family="Times,serif" font-size="14.00" fill="#ffffff">dout</text>
</g>
<!-- /when0/filt/const&#45;&gt;/when0/filt/ccat -->
<g id="edge20" class="edge">
<title>/when0/filt/const:dout&#45;&gt;/when0/filt/ccat:din1</title>
<path fill="none" stroke="black" d="M1165.5,-278C1181.67,-278 1187.62,-272.82 1199.8,-270.8"/>
<polygon fill="black" stroke="black" points="1200.3,-274.27 1210,-270 1199.76,-267.29 1200.3,-274.27"/>
</g>
<!-- /when0/filt/sieve_0 -->
<g id="node13" class="node">
<title>/when0/filt/sieve_0</title>
<path fill="#222222" fill-opacity="0.133333" stroke="black" d="M1646,-262C1646,-262 1817,-262 1817,-262 1823,-262 1829,-268 1829,-274 1829,-274 1829,-286 1829,-286 1829,-292 1823,-298 1817,-298 1817,-298 1646,-298 1646,-298 1640,-298 1634,-292 1634,-286 1634,-286 1634,-274 1634,-274 1634,-268 1640,-262 1646,-262"/>
<text text-anchor="middle" x="1651" y="-276.3" font-family="Times,serif" font-size="14.00" fill="#ffffff">din</text>
<polyline fill="none" stroke="black" points="1668,-262 1668,-298 "/>
<text text-anchor="middle" x="1728" y="-276.3" font-family="Times,serif" font-size="14.00" fill="#ffffff">/when0/filt/sieve_0</text>
<polyline fill="none" stroke="black" points="1788,-262 1788,-298 "/>
<text text-anchor="middle" x="1808.5" y="-276.3" font-family="Times,serif" font-size="14.00" fill="#ffffff">dout</text>
</g>
<!-- /when0/filt/filt&#45;&gt;/when0/filt/sieve_0 -->
<g id="edge22" class="edge">
<title>/when0/filt/filt:dout&#45;&gt;/when0/filt/sieve_0:din</title>
<path fill="none" stroke="black" d="M1598,-281C1610,-281 1615.25,-280.44 1623.87,-280.16"/>
<polygon fill="black" stroke="black" points="1624.06,-283.65 1634,-280 1623.95,-276.65 1624.06,-283.65"/>
</g>
<!-- /when0/filt/code -->
<g id="node14" class="node">
<title>/when0/filt/code</title>
<path fill="#222222" fill-opacity="0.133333" stroke="black" d="M1877,-261C1877,-261 2032,-261 2032,-261 2038,-261 2044,-267 2044,-273 2044,-273 2044,-285 2044,-285 2044,-291 2038,-297 2032,-297 2032,-297 1877,-297 1877,-297 1871,-297 1865,-291 1865,-285 1865,-285 1865,-273 1865,-273 1865,-267 1871,-261 1877,-261"/>
<text text-anchor="middle" x="1882" y="-275.3" font-family="Times,serif" font-size="14.00" fill="#ffffff">din</text>
<polyline fill="none" stroke="black" points="1899,-261 1899,-297 "/>
<text text-anchor="middle" x="1951" y="-275.3" font-family="Times,serif" font-size="14.00" fill="#ffffff">/when0/filt/code</text>
<polyline fill="none" stroke="black" points="2003,-261 2003,-297 "/>
<text text-anchor="middle" x="2023.5" y="-275.3" font-family="Times,serif" font-size="14.00" fill="#ffffff">dout</text>
</g>
<!-- /when0/filt/sieve_0&#45;&gt;/when0/filt/code -->
<g id="edge23" class="edge">
<title>/when0/filt/sieve_0:dout&#45;&gt;/when0/filt/code:din</title>
<path fill="none" stroke="black" d="M1829,-280C1841,-280 1846.25,-279.44 1854.87,-279.16"/>
<polygon fill="black" stroke="black" points="1855.06,-282.65 1865,-279 1854.95,-275.65 1855.06,-282.65"/>
</g>
<!-- /priority_mux -->
<g id="node27" class="node">
<title>/priority_mux</title>
<path fill="#222222" fill-opacity="0.133333" stroke="black" d="M2092,-170C2092,-170 2242,-170 2242,-170 2248,-170 2254,-176 2254,-182 2254,-182 2254,-204 2254,-204 2254,-210 2248,-216 2242,-216 2242,-216 2092,-216 2092,-216 2086,-216 2080,-210 2080,-204 2080,-204 2080,-182 2080,-182 2080,-176 2086,-170 2092,-170"/>
<text text-anchor="middle" x="2100.5" y="-200.8" font-family="Times,serif" font-size="14.00" fill="#ffffff">din0</text>
<polyline fill="none" stroke="black" points="2080,-193 2121,-193 "/>
<text text-anchor="middle" x="2100.5" y="-177.8" font-family="Times,serif" font-size="14.00" fill="#ffffff">din1</text>
<polyline fill="none" stroke="black" points="2121,-170 2121,-216 "/>
<text text-anchor="middle" x="2167" y="-189.3" font-family="Times,serif" font-size="14.00" fill="#ffffff">/priority_mux</text>
<polyline fill="none" stroke="black" points="2213,-170 2213,-216 "/>
<text text-anchor="middle" x="2233.5" y="-189.3" font-family="Times,serif" font-size="14.00" fill="#ffffff">dout</text>
</g>
<!-- /when0/filt/code&#45;&gt;/priority_mux -->
<g id="edge9" class="edge">
<title>/when0/filt/code:dout&#45;&gt;/priority_mux:din0</title>
<path fill="none" stroke="black" d="M2045.5,-279C2077.68,-279 2051.38,-220.82 2070.31,-207.63"/>
<polygon fill="black" stroke="black" points="2071.27,-211 2080,-205 2069.43,-204.25 2071.27,-211"/>
</g>
<!-- /mul -->
<g id="node16" class="node">
<title>/mul</title>
<path fill="#222222" fill-opacity="0.133333" stroke="black" d="M337,-103C337,-103 430,-103 430,-103 436,-103 442,-109 442,-115 442,-115 442,-127 442,-127 442,-133 436,-139 430,-139 430,-139 337,-139 337,-139 331,-139 325,-133 325,-127 325,-127 325,-115 325,-115 325,-109 331,-103 337,-103"/>
<text text-anchor="middle" x="342" y="-117.3" font-family="Times,serif" font-size="14.00" fill="#ffffff">din</text>
<polyline fill="none" stroke="black" points="359,-103 359,-139 "/>
<text text-anchor="middle" x="380" y="-117.3" font-family="Times,serif" font-size="14.00" fill="#ffffff">/mul</text>
<polyline fill="none" stroke="black" points="401,-103 401,-139 "/>
<text text-anchor="middle" x="421.5" y="-117.3" font-family="Times,serif" font-size="14.00" fill="#ffffff">dout</text>
</g>
<!-- /ccat2&#45;&gt;/mul -->
<g id="edge10" class="edge">
<title>/ccat2:dout&#45;&gt;/mul:din</title>
<path fill="none" stroke="black" d="M289,-135C302.14,-135 306.2,-126.79 315.08,-122.95"/>
<polygon fill="black" stroke="black" points="315.86,-126.36 325,-121 314.51,-119.49 315.86,-126.36"/>
</g>
<!-- /ccat3 -->
<g id="node17" class="node">
<title>/ccat3</title>
<path fill="#222222" fill-opacity="0.133333" stroke="black" d="M490,-17C490,-17 597,-17 597,-17 603,-17 609,-23 609,-29 609,-29 609,-51 609,-51 609,-57 603,-63 597,-63 597,-63 490,-63 490,-63 484,-63 478,-57 478,-51 478,-51 478,-29 478,-29 478,-23 484,-17 490,-17"/>
<text text-anchor="middle" x="498.5" y="-47.8" font-family="Times,serif" font-size="14.00" fill="#ffffff">din0</text>
<polyline fill="none" stroke="black" points="478,-40 519,-40 "/>
<text text-anchor="middle" x="498.5" y="-24.8" font-family="Times,serif" font-size="14.00" fill="#ffffff">din1</text>
<polyline fill="none" stroke="black" points="519,-17 519,-63 "/>
<text text-anchor="middle" x="543.5" y="-36.3" font-family="Times,serif" font-size="14.00" fill="#ffffff">/ccat3</text>
<polyline fill="none" stroke="black" points="568,-17 568,-63 "/>
<text text-anchor="middle" x="588.5" y="-36.3" font-family="Times,serif" font-size="14.00" fill="#ffffff">dout</text>
</g>
<!-- /mul&#45;&gt;/ccat3 -->
<g id="edge11" class="edge">
<title>/mul:dout&#45;&gt;/ccat3:din0</title>
<path fill="none" stroke="black" d="M442,-121C472.27,-121 450.65,-68.17 467.94,-54.96"/>
<polygon fill="black" stroke="black" points="469.4,-58.18 478,-52 467.42,-51.47 469.4,-58.18"/>
</g>
<!-- /lt -->
<g id="node19" class="node">
<title>/lt</title>
<path fill="#222222" fill-opacity="0.133333" stroke="black" d="M658.5,-22C658.5,-22 737.5,-22 737.5,-22 743.5,-22 749.5,-28 749.5,-34 749.5,-34 749.5,-46 749.5,-46 749.5,-52 743.5,-58 737.5,-58 737.5,-58 658.5,-58 658.5,-58 652.5,-58 646.5,-52 646.5,-46 646.5,-46 646.5,-34 646.5,-34 646.5,-28 652.5,-22 658.5,-22"/>
<text text-anchor="middle" x="663.5" y="-36.3" font-family="Times,serif" font-size="14.00" fill="#ffffff">din</text>
<polyline fill="none" stroke="black" points="680.5,-22 680.5,-58 "/>
<text text-anchor="middle" x="694.5" y="-36.3" font-family="Times,serif" font-size="14.00" fill="#ffffff">/lt</text>
<polyline fill="none" stroke="black" points="708.5,-22 708.5,-58 "/>
<text text-anchor="middle" x="729" y="-36.3" font-family="Times,serif" font-size="14.00" fill="#ffffff">dout</text>
</g>
<!-- /ccat3&#45;&gt;/lt -->
<g id="edge13" class="edge">
<title>/ccat3:dout&#45;&gt;/lt:din</title>
<path fill="none" stroke="black" d="M609,-40C621,-40 626.25,-40 634.88,-40"/>
<polygon fill="black" stroke="black" points="635,-43.5 645,-40 635,-36.5 635,-43.5"/>
</g>
<!-- /const1 -->
<g id="node18" class="node">
<title>/const1</title>
<path fill="#222222" fill-opacity="0.133333" stroke="black" d="M337,-17C337,-17 430,-17 430,-17 436,-17 442,-23 442,-29 442,-29 442,-41 442,-41 442,-47 436,-53 430,-53 430,-53 337,-53 337,-53 331,-53 325,-47 325,-41 325,-41 325,-29 325,-29 325,-23 331,-17 337,-17"/>
<text text-anchor="middle" x="335" y="-31.3" font-family="Times,serif" font-size="14.00" fill="#ffffff"> </text>
<polyline fill="none" stroke="black" points="345,-17 345,-53 "/>
<text text-anchor="middle" x="373" y="-31.3" font-family="Times,serif" font-size="14.00" fill="#ffffff">/const1</text>
<polyline fill="none" stroke="black" points="401,-17 401,-53 "/>
<text text-anchor="middle" x="421.5" y="-31.3" font-family="Times,serif" font-size="14.00" fill="#ffffff">dout</text>
</g>
<!-- /const1&#45;&gt;/ccat3 -->
<g id="edge12" class="edge">
<title>/const1:dout&#45;&gt;/ccat3:din1</title>
<path fill="none" stroke="black" d="M442,-35C454.22,-35 459.19,-31.06 467.79,-29.09"/>
<polygon fill="black" stroke="black" points="468.43,-32.55 478,-28 467.68,-25.59 468.43,-32.55"/>
</g>
<!-- /lt&#45;&gt;/when1/ccat -->
<g id="edge25" class="edge">
<title>/lt:dout&#45;&gt;/when1/ccat:din1</title>
<path fill="none" stroke="black" d="M751,-40C762.55,-40 767.66,-40 775.9,-40"/>
<polygon fill="black" stroke="black" points="776,-43.5 786,-40 776,-36.5 776,-43.5"/>
</g>
<!-- /when1/cast_dout -->
<g id="node21" class="node">
<title>/when1/cast_dout</title>
<path fill="#222222" fill-opacity="0.133333" stroke="black" d="M999,-25C999,-25 1162,-25 1162,-25 1168,-25 1174,-31 1174,-37 1174,-37 1174,-49 1174,-49 1174,-55 1168,-61 1162,-61 1162,-61 999,-61 999,-61 993,-61 987,-55 987,-49 987,-49 987,-37 987,-37 987,-31 993,-25 999,-25"/>
<text text-anchor="middle" x="1004" y="-39.3" font-family="Times,serif" font-size="14.00" fill="#ffffff">din</text>
<polyline fill="none" stroke="black" points="1021,-25 1021,-61 "/>
<text text-anchor="middle" x="1077" y="-39.3" font-family="Times,serif" font-size="14.00" fill="#ffffff">/when1/cast_dout</text>
<polyline fill="none" stroke="black" points="1133,-25 1133,-61 "/>
<text text-anchor="middle" x="1153.5" y="-39.3" font-family="Times,serif" font-size="14.00" fill="#ffffff">dout</text>
</g>
<!-- /when1/ccat&#45;&gt;/when1/cast_dout -->
<g id="edge26" class="edge">
<title>/when1/ccat:dout&#45;&gt;/when1/cast_dout:din</title>
<path fill="none" stroke="black" d="M951,-52C963.5,-52 968.26,-46.83 977.01,-44.33"/>
<polygon fill="black" stroke="black" points="977.55,-47.79 987,-43 976.63,-40.85 977.55,-47.79"/>
</g>
<!-- /when1/filt/ccat -->
<g id="node22" class="node">
<title>/when1/filt/ccat</title>
<path fill="#222222" fill-opacity="0.133333" stroke="black" d="M1222,-79C1222,-79 1381,-79 1381,-79 1387,-79 1393,-85 1393,-91 1393,-91 1393,-113 1393,-113 1393,-119 1387,-125 1381,-125 1381,-125 1222,-125 1222,-125 1216,-125 1210,-119 1210,-113 1210,-113 1210,-91 1210,-91 1210,-85 1216,-79 1222,-79"/>
<text text-anchor="middle" x="1230.5" y="-109.8" font-family="Times,serif" font-size="14.00" fill="#ffffff">din0</text>
<polyline fill="none" stroke="black" points="1210,-102 1251,-102 "/>
<text text-anchor="middle" x="1230.5" y="-86.8" font-family="Times,serif" font-size="14.00" fill="#ffffff">din1</text>
<polyline fill="none" stroke="black" points="1251,-79 1251,-125 "/>
<text text-anchor="middle" x="1301.5" y="-98.3" font-family="Times,serif" font-size="14.00" fill="#ffffff">/when1/filt/ccat</text>
<polyline fill="none" stroke="black" points="1352,-79 1352,-125 "/>
<text text-anchor="middle" x="1372.5" y="-98.3" font-family="Times,serif" font-size="14.00" fill="#ffffff">dout</text>
</g>
<!-- /when1/cast_dout&#45;&gt;/when1/filt/ccat -->
<g id="edge27" class="edge">
<title>/when1/cast_dout:dout&#45;&gt;/when1/filt/ccat:din0</title>
<path fill="none" stroke="black" d="M1174,-43C1205.23,-43 1181.8,-98.33 1200.23,-111.3"/>
<polygon fill="black" stroke="black" points="1199.43,-114.71 1210,-114 1201.29,-107.97 1199.43,-114.71"/>
</g>
<!-- /when1/filt/filt -->
<g id="node24" class="node">
<title>/when1/filt/filt</title>
<path fill="#222222" fill-opacity="0.133333" stroke="black" d="M1441,-85C1441,-85 1586,-85 1586,-85 1592,-85 1598,-91 1598,-97 1598,-97 1598,-109 1598,-109 1598,-115 1592,-121 1586,-121 1586,-121 1441,-121 1441,-121 1435,-121 1429,-115 1429,-109 1429,-109 1429,-97 1429,-97 1429,-91 1435,-85 1441,-85"/>
<text text-anchor="middle" x="1446" y="-99.3" font-family="Times,serif" font-size="14.00" fill="#ffffff">din</text>
<polyline fill="none" stroke="black" points="1463,-85 1463,-121 "/>
<text text-anchor="middle" x="1510" y="-99.3" font-family="Times,serif" font-size="14.00" fill="#ffffff">/when1/filt/filt</text>
<polyline fill="none" stroke="black" points="1557,-85 1557,-121 "/>
<text text-anchor="middle" x="1577.5" y="-99.3" font-family="Times,serif" font-size="14.00" fill="#ffffff">dout</text>
</g>
<!-- /when1/filt/ccat&#45;&gt;/when1/filt/filt -->
<g id="edge29" class="edge">
<title>/when1/filt/ccat:dout&#45;&gt;/when1/filt/filt:din</title>
<path fill="none" stroke="black" d="M1393,-102C1405,-102 1410.25,-102.56 1418.87,-102.84"/>
<polygon fill="black" stroke="black" points="1418.95,-106.35 1429,-103 1419.06,-99.35 1418.95,-106.35"/>
</g>
<!-- /when1/filt/const -->
<g id="node23" class="node">
<title>/when1/filt/const</title>
<path fill="#222222" fill-opacity="0.133333" stroke="black" d="M1008.5,-80C1008.5,-80 1152.5,-80 1152.5,-80 1158.5,-80 1164.5,-86 1164.5,-92 1164.5,-92 1164.5,-104 1164.5,-104 1164.5,-110 1158.5,-116 1152.5,-116 1152.5,-116 1008.5,-116 1008.5,-116 1002.5,-116 996.5,-110 996.5,-104 996.5,-104 996.5,-92 996.5,-92 996.5,-86 1002.5,-80 1008.5,-80"/>
<text text-anchor="middle" x="1006.5" y="-94.3" font-family="Times,serif" font-size="14.00" fill="#ffffff"> </text>
<polyline fill="none" stroke="black" points="1016.5,-80 1016.5,-116 "/>
<text text-anchor="middle" x="1070" y="-94.3" font-family="Times,serif" font-size="14.00" fill="#ffffff">/when1/filt/const</text>
<polyline fill="none" stroke="black" points="1123.5,-80 1123.5,-116 "/>
<text text-anchor="middle" x="1144" y="-94.3" font-family="Times,serif" font-size="14.00" fill="#ffffff">dout</text>
</g>
<!-- /when1/filt/const&#45;&gt;/when1/filt/ccat -->
<g id="edge28" class="edge">
<title>/when1/filt/const:dout&#45;&gt;/when1/filt/ccat:din1</title>
<path fill="none" stroke="black" d="M1165.5,-98C1181.67,-98 1187.62,-92.82 1199.8,-90.8"/>
<polygon fill="black" stroke="black" points="1200.3,-94.27 1210,-90 1199.76,-87.29 1200.3,-94.27"/>
</g>
<!-- /when1/filt/sieve_0 -->
<g id="node25" class="node">
<title>/when1/filt/sieve_0</title>
<path fill="#222222" fill-opacity="0.133333" stroke="black" d="M1646,-87C1646,-87 1817,-87 1817,-87 1823,-87 1829,-93 1829,-99 1829,-99 1829,-111 1829,-111 1829,-117 1823,-123 1817,-123 1817,-123 1646,-123 1646,-123 1640,-123 1634,-117 1634,-111 1634,-111 1634,-99 1634,-99 1634,-93 1640,-87 1646,-87"/>
<text text-anchor="middle" x="1651" y="-101.3" font-family="Times,serif" font-size="14.00" fill="#ffffff">din</text>
<polyline fill="none" stroke="black" points="1668,-87 1668,-123 "/>
<text text-anchor="middle" x="1728" y="-101.3" font-family="Times,serif" font-size="14.00" fill="#ffffff">/when1/filt/sieve_0</text>
<polyline fill="none" stroke="black" points="1788,-87 1788,-123 "/>
<text text-anchor="middle" x="1808.5" y="-101.3" font-family="Times,serif" font-size="14.00" fill="#ffffff">dout</text>
</g>
<!-- /when1/filt/filt&#45;&gt;/when1/filt/sieve_0 -->
<g id="edge30" class="edge">
<title>/when1/filt/filt:dout&#45;&gt;/when1/filt/sieve_0:din</title>
<path fill="none" stroke="black" d="M1598,-103C1610.02,-103 1615.25,-104.12 1623.87,-104.69"/>
<polygon fill="black" stroke="black" points="1623.9,-108.19 1634,-105 1624.11,-101.19 1623.9,-108.19"/>
</g>
<!-- /when1/filt/code -->
<g id="node26" class="node">
<title>/when1/filt/code</title>
<path fill="#222222" fill-opacity="0.133333" stroke="black" d="M1877,-88C1877,-88 2032,-88 2032,-88 2038,-88 2044,-94 2044,-100 2044,-100 2044,-112 2044,-112 2044,-118 2038,-124 2032,-124 2032,-124 1877,-124 1877,-124 1871,-124 1865,-118 1865,-112 1865,-112 1865,-100 1865,-100 1865,-94 1871,-88 1877,-88"/>
<text text-anchor="middle" x="1882" y="-102.3" font-family="Times,serif" font-size="14.00" fill="#ffffff">din</text>
<polyline fill="none" stroke="black" points="1899,-88 1899,-124 "/>
<text text-anchor="middle" x="1951" y="-102.3" font-family="Times,serif" font-size="14.00" fill="#ffffff">/when1/filt/code</text>
<polyline fill="none" stroke="black" points="2003,-88 2003,-124 "/>
<text text-anchor="middle" x="2023.5" y="-102.3" font-family="Times,serif" font-size="14.00" fill="#ffffff">dout</text>
</g>
<!-- /when1/filt/sieve_0&#45;&gt;/when1/filt/code -->
<g id="edge31" class="edge">
<title>/when1/filt/sieve_0:dout&#45;&gt;/when1/filt/code:din</title>
<path fill="none" stroke="black" d="M1829,-105C1841,-105 1846.25,-105.56 1854.87,-105.84"/>
<polygon fill="black" stroke="black" points="1854.95,-109.35 1865,-106 1855.06,-102.35 1854.95,-109.35"/>
</g>
<!-- /when1/filt/code&#45;&gt;/priority_mux -->
<g id="edge14" class="edge">
<title>/when1/filt/code:dout&#45;&gt;/priority_mux:din1</title>
<path fill="none" stroke="black" d="M2045.5,-106C2078.03,-106 2051.15,-164.97 2070.22,-178.33"/>
<polygon fill="black" stroke="black" points="2069.43,-181.74 2080,-181 2071.27,-174.99 2069.43,-181.74"/>
</g>
<!-- /shred -->
<g id="node28" class="node">
<title>/shred</title>
<path fill="#222222" fill-opacity="0.133333" stroke="black" d="M2302,-175C2302,-175 2382,-175 2382,-175 2388,-175 2394,-181 2394,-187 2394,-187 2394,-199 2394,-199 2394,-205 2388,-211 2382,-211 2382,-211 2302,-211 2302,-211 2296,-211 2290,-205 2290,-199 2290,-199 2290,-187 2290,-187 2290,-181 2296,-175 2302,-175"/>
<text text-anchor="middle" x="2307" y="-189.3" font-family="Times,serif" font-size="14.00" fill="#ffffff">din</text>
<polyline fill="none" stroke="black" points="2324,-175 2324,-211 "/>
<text text-anchor="middle" x="2349" y="-189.3" font-family="Times,serif" font-size="14.00" fill="#ffffff">/shred</text>
<polyline fill="none" stroke="black" points="2374,-175 2374,-211 "/>
<text text-anchor="middle" x="2384" y="-189.3" font-family="Times,serif" font-size="14.00" fill="#ffffff"> </text>
</g>
<!-- /priority_mux&#45;&gt;/shred -->
<g id="edge15" class="edge">
<title>/priority_mux:dout&#45;&gt;/shred:din</title>
<path fill="none" stroke="black" d="M2254,-193C2266,-193 2271.25,-193 2279.88,-193"/>
<polygon fill="black" stroke="black" points="2280,-196.5 2290,-193 2280,-189.5 2280,-196.5"/>
</g>
</g>
</svg>
